<svg width="15" height="15" viewBox="0 0 15 15" fill="none" xmlns="http://www.w3.org/2000/svg">
<path d="M14.4 0H0.6C0.268125 0 0 0.268125 0 0.6V14.4C0 14.7319 0.268125 15 0.6 15H14.4C14.7319 15 15 14.7319 15 14.4V0.6C15 0.268125 14.7319 0 14.4 0ZM13.8 13.8H10.3481V9.19125H12.2981L12.5906 6.92813H10.3481V5.4825C10.3481 4.82625 10.53 4.38 11.4694 4.38H12.6675V2.355C12.4594 2.32688 11.7488 2.265 10.92 2.265C9.19125 2.265 8.00813 3.32063 8.00813 5.2575V6.92625H6.05438V9.18937H8.01V13.8H1.2V1.2H13.8V13.8Z" fill="white"/>
</svg>
