<svg width="15" height="15" viewBox="0 0 15 15" fill="none" xmlns="http://www.w3.org/2000/svg">
<path d="M14.3457 2.37533L12.3488 0.380578C12.1051 0.136858 11.7788 0 11.4338 0C11.0888 0 10.7625 0.134983 10.5188 0.380578L8.36816 2.52718C8.12441 2.7709 7.98753 3.09899 7.98753 3.44394C7.98753 3.79078 8.12253 4.11511 8.36816 4.36071L10.0482 6.04237C9.66545 6.93398 9.11555 7.74409 8.42816 8.42895C7.74003 9.12074 6.93565 9.66629 6.04315 10.0525L4.36314 8.37083C4.11939 8.12711 3.79314 7.99025 3.44814 7.99025C3.27797 7.98962 3.10939 8.02296 2.95227 8.08831C2.79515 8.15366 2.65265 8.24971 2.53314 8.37083L0.380627 10.5174C0.136876 10.7612 0 11.0892 0 11.4342C0 11.781 0.135001 12.1054 0.380627 12.351L2.37564 14.3457C2.79189 14.7619 3.36564 15 3.95439 15C4.07627 15 4.19439 14.9906 4.31439 14.97C6.7969 14.5613 9.26066 13.2396 11.25 11.2523C13.2376 9.26134 14.5576 6.7979 14.9701 4.31384C15.0882 3.60892 14.8519 2.88339 14.3457 2.37533ZM13.6407 4.09074C13.2751 6.30109 12.0863 8.50581 10.2957 10.2962C8.50504 12.0866 6.3019 13.2752 4.09127 13.6408C3.81377 13.6877 3.52877 13.5939 3.32626 13.3933L1.36688 11.4342L3.44439 9.35508L5.69065 11.6048L5.70752 11.6217L6.11253 11.4717C7.34052 11.0203 8.45566 10.3072 9.38065 9.38204C10.3056 8.45685 11.0184 7.34161 11.4694 6.11361L11.6194 5.70866L9.35442 3.44582L11.4319 1.3667L13.3913 3.32583C13.5938 3.52831 13.6876 3.81327 13.6407 4.09074Z" fill="white"/>
</svg>
