<svg width="14" height="14" viewBox="0 0 14 14" fill="none" xmlns="http://www.w3.org/2000/svg">
<path fill-rule="evenodd" clip-rule="evenodd" d="M10.0276 9.02893L13.7934 12.7948C13.9257 12.9273 14.0001 13.1069 14 13.2942C13.9999 13.4814 13.9255 13.661 13.793 13.7934C13.6606 13.9257 13.481 14.0001 13.2937 14C13.1064 13.9999 12.9269 13.9255 12.7945 13.793L9.0287 10.0271C7.90295 10.8991 6.48731 11.3094 5.06977 11.1746C3.65223 11.0399 2.33927 10.3701 1.39799 9.30165C0.456712 8.23318 -0.0421836 6.84624 0.0027973 5.42299C0.0477782 3.99973 0.633257 2.64707 1.64013 1.64017C2.647 0.633273 3.99963 0.0477794 5.42285 0.00279737C6.84607 -0.0421846 8.23297 0.456724 9.30142 1.39803C10.3699 2.33933 11.0396 3.65233 11.1743 5.0699C11.3091 6.48748 10.8988 7.90315 10.0269 9.02893H10.0276ZM5.60026 9.79961C6.71412 9.79961 7.78235 9.35712 8.56997 8.56948C9.35759 7.78185 9.80007 6.71358 9.80007 5.5997C9.80007 4.48581 9.35759 3.41755 8.56997 2.62992C7.78235 1.84228 6.71412 1.39979 5.60026 1.39979C4.4864 1.39979 3.41817 1.84228 2.63055 2.62992C1.84293 3.41755 1.40046 4.48581 1.40046 5.5997C1.40046 6.71358 1.84293 7.78185 2.63055 8.56948C3.41817 9.35712 4.4864 9.79961 5.60026 9.79961Z" fill="#333333"/>
</svg>
