<svg width="20" height="20" viewBox="0 0 20 20" fill="none" xmlns="http://www.w3.org/2000/svg">
<path d="M18.7122 1.86352C18.5479 1.67812 18.3716 1.50356 18.1845 1.34095C17.2907 0.562894 16.0798 0.0199997 14.5821 0H14.5504C14.4609 0 14.3706 0.00516119 14.2818 0.0103224C13.3514 0.0522572 10.6661 1.14514 9.99619 3.30285C9.32786 1.14482 6.64194 0.0512895 5.71122 0.0103224C5.62472 0.00516119 5.53304 0 5.4459 0H5.41124C3.91553 0.0196771 2.70458 0.562894 1.81208 1.34095C1.6255 1.50422 1.44916 1.67874 1.28404 1.86352C0.152134 3.15221 -0.386281 4.97605 0.312168 6.63925C0.39672 6.87441 0.493259 7.11763 0.60308 7.36537C2.24813 11.0947 6.72099 16.231 8.93393 18.65C9.40885 19.2413 9.77233 19.6952 9.98906 19.9626V19.9926L9.99165 19.99C9.99165 19.9948 9.99683 19.9974 9.9991 20V19.9806L10.001 19.9777L10.0036 19.9806V20C10.0095 19.9974 10.0121 19.9945 10.0121 19.99L10.0147 19.9926V19.9626C10.2311 19.6952 10.5962 19.2416 11.0698 18.65C13.2817 16.231 17.753 11.0947 19.3974 7.36537C19.503 7.12687 19.5999 6.88468 19.688 6.63925C20.3848 4.97444 19.8509 3.15059 18.7161 1.86062" fill="#C5221E"/>
</svg>
