<svg width="91" height="91" viewBox="0 0 91 91" fill="none" xmlns="http://www.w3.org/2000/svg">
<path d="M45.4167 0C20.3739 0 0 20.3739 0 45.4167C0 70.4594 20.3739 90.8333 45.4167 90.8333C70.4594 90.8333 90.8333 70.4594 90.8333 45.4167C90.8333 20.3739 70.4594 0 45.4167 0ZM45.4167 81.75C25.3834 81.75 9.08333 65.45 9.08333 45.4167C9.08333 25.3834 25.3834 9.08333 45.4167 9.08333C65.45 9.08333 81.75 25.3834 81.75 45.4167C81.75 65.45 65.45 81.75 45.4167 81.75Z" fill="white" fill-opacity="0.5"/>
<path d="M31.792 68.1256L68.1253 45.4173L31.792 22.709V68.1256Z" fill="white" fill-opacity="0.5"/>
</svg>
