<svg width="17" height="13" viewBox="0 0 17 13" fill="none" xmlns="http://www.w3.org/2000/svg">
<path d="M15.9107 0H0.589286C0.263337 0 0 0.245781 0 0.55V11.55C0 11.8542 0.263337 12.1 0.589286 12.1H15.9107C16.2367 12.1 16.5 11.8542 16.5 11.55V0.55C16.5 0.245781 16.2367 0 15.9107 0ZM15.1741 1.90437V10.8625H1.32589V1.90437L0.817634 1.53484L1.54135 0.666875L2.32952 1.23922H14.1723L14.9605 0.666875L15.6842 1.53484L15.1741 1.90437ZM14.1723 1.2375L8.25 5.53438L2.32768 1.2375L1.53951 0.665156L0.815793 1.53312L1.32405 1.90266L7.61468 6.46766C7.79559 6.59883 8.01815 6.67004 8.24724 6.67004C8.47633 6.67004 8.69889 6.59883 8.8798 6.46766L15.1741 1.90437L15.6824 1.53484L14.9586 0.666875L14.1723 1.2375Z" fill="black"/>
</svg>
