<svg width="17" height="17" viewBox="0 0 17 17" fill="none" xmlns="http://www.w3.org/2000/svg">
<path d="M15.7803 2.61286L13.5837 0.418635C13.3156 0.150544 12.9567 0 12.5772 0C12.1977 0 11.8388 0.148482 11.5707 0.418635L9.20498 2.7799C8.93685 3.04799 8.78629 3.40889 8.78629 3.78834C8.78629 4.16985 8.93479 4.52662 9.20498 4.79678L11.053 6.64661C10.632 7.62738 10.0271 8.5185 9.27098 9.27184C8.51404 10.0328 7.62922 10.6329 6.64747 11.0577L4.79946 9.20791C4.53133 8.93982 4.17246 8.78928 3.79295 8.78928C3.60577 8.78858 3.42032 8.82526 3.24749 8.89714C3.07466 8.96903 2.91792 9.07468 2.78645 9.20791L0.418689 11.5692C0.150563 11.8373 0 12.1982 0 12.5776C0 12.9591 0.148501 13.3159 0.418689 13.5861L2.6132 15.7803C3.07108 16.2381 3.7022 16.5 4.34983 16.5C4.48389 16.5 4.61383 16.4897 4.74583 16.467C7.4766 16.0174 10.1867 14.5636 12.3751 12.3776C14.5613 10.1875 16.0133 7.47769 16.4671 4.74522C16.597 3.96982 16.3371 3.17173 15.7803 2.61286ZM15.0048 4.49981C14.6026 6.9312 13.2949 9.35639 11.3252 11.3258C9.35554 13.2953 6.93209 14.6027 4.50039 15.0049C4.19514 15.0564 3.88164 14.9533 3.65889 14.7327L1.50357 12.5776L3.78883 10.2906L6.25972 12.7653L6.27828 12.7838L6.72378 12.6189C8.07457 12.1223 9.30122 11.338 10.3187 10.3202C11.3362 9.30253 12.1202 8.07577 12.6164 6.72497L12.7814 6.27953L10.2899 3.7904L12.5751 1.50337L14.7304 3.65842C14.9532 3.88114 15.0563 4.1946 15.0048 4.49981Z" fill="black"/>
</svg>
