<svg width="17" height="18" viewBox="0 0 17 18" fill="none" xmlns="http://www.w3.org/2000/svg">
<path d="M16.32 0H0.68C0.303875 0 0 0.32175 0 0.72V17.28C0 17.6783 0.303875 18 0.68 18H16.32C16.6961 18 17 17.6783 17 17.28V0.72C17 0.32175 16.6961 0 16.32 0ZM15.64 16.56H11.7279V11.0295H13.9379L14.2694 8.31375H11.7279V6.579C11.7279 5.7915 11.934 5.256 12.9986 5.256H14.3565V2.826C14.1206 2.79225 13.3153 2.718 12.376 2.718C10.4167 2.718 9.07587 3.98475 9.07587 6.309V8.3115H6.86162V11.0273H9.078V16.56H1.36V1.44H15.64V16.56Z" fill="black"/>
</svg>
