<svg width="17" height="16" viewBox="0 0 17 16" fill="none" xmlns="http://www.w3.org/2000/svg">
<path d="M8.49771 3.89523C6.08425 3.89523 4.13648 5.72847 4.13648 8C4.13648 10.2715 6.08425 12.1048 8.49771 12.1048C10.9112 12.1048 12.859 10.2715 12.859 8C12.859 5.72847 10.9112 3.89523 8.49771 3.89523ZM8.49771 10.6678C6.93694 10.6678 5.66323 9.46899 5.66323 8C5.66323 6.53101 6.93694 5.3322 8.49771 5.3322C10.0585 5.3322 11.3322 6.53101 11.3322 8C11.3322 9.46899 10.0585 10.6678 8.49771 10.6678ZM13.0376 2.77047C12.4741 2.77047 12.019 3.19876 12.019 3.72911C12.019 4.25947 12.4741 4.68776 13.0376 4.68776C13.6011 4.68776 14.0561 4.26147 14.0561 3.72911C14.0563 3.60318 14.0301 3.47845 13.9789 3.36207C13.9278 3.24569 13.8528 3.13995 13.7582 3.0509C13.6636 2.96185 13.5512 2.89124 13.4276 2.84312C13.3039 2.795 13.1714 2.77031 13.0376 2.77047ZM16.9991 8C16.9991 6.89525 17.0097 5.80051 16.9438 4.69777C16.8778 3.4169 16.5674 2.28014 15.5722 1.3435C14.575 0.404868 13.3693 0.114672 12.0084 0.0526304C10.8346 -0.0094115 9.67149 0.000595291 8.49984 0.000595291C7.32607 0.000595291 6.16293 -0.0094115 4.99129 0.0526304C3.63039 0.114672 2.4226 0.40687 1.42745 1.3435C0.430165 2.28214 0.121837 3.4169 0.0559188 4.69777C-0.00999953 5.80252 0.000632484 6.89725 0.000632484 8C0.000632484 9.10275 -0.00999953 10.1995 0.0559188 11.3022C0.121837 12.5831 0.432291 13.7199 1.42745 14.6565C2.42473 15.5951 3.63039 15.8853 4.99129 15.9474C6.16506 16.0094 7.3282 15.9994 8.49984 15.9994C9.67361 15.9994 10.8368 16.0094 12.0084 15.9474C13.3693 15.8853 14.5771 15.5931 15.5722 14.6565C16.5695 13.7179 16.8778 12.5831 16.9438 11.3022C17.0118 10.1995 16.9991 9.10475 16.9991 8ZM15.1278 12.7192C14.9726 13.0834 14.7855 13.3556 14.4857 13.6358C14.1858 13.918 13.8988 14.0941 13.5118 14.2402C12.3933 14.6585 9.7374 14.5644 8.49771 14.5644C7.25803 14.5644 4.60003 14.6585 3.48154 14.2422C3.09454 14.0961 2.80535 13.92 2.50765 13.6378C2.20783 13.3556 2.02071 13.0854 1.86548 12.7212C1.42319 11.6665 1.52313 9.16679 1.52313 8C1.52313 6.83321 1.42319 4.33152 1.86548 3.27881C2.02071 2.91456 2.20783 2.64238 2.50765 2.36219C2.80748 2.082 3.09454 1.90388 3.48154 1.75778C4.60003 1.3415 7.25803 1.43556 8.49771 1.43556C9.7374 1.43556 12.3954 1.3415 13.5139 1.75778C13.9009 1.90388 14.1901 2.08 14.4878 2.36219C14.7876 2.64438 14.9747 2.91456 15.1299 3.27881C15.5722 4.33152 15.4723 6.83321 15.4723 8C15.4723 9.16679 15.5722 11.6665 15.1278 12.7192Z" fill="black"/>
</svg>
