<svg width="15" height="11" viewBox="0 0 15 11" fill="none" xmlns="http://www.w3.org/2000/svg">
<path d="M14.4643 0H0.535714C0.239397 0 0 0.223437 0 0.5V10.5C0 10.7766 0.239397 11 0.535714 11H14.4643C14.7606 11 15 10.7766 15 10.5V0.5C15 0.223437 14.7606 0 14.4643 0ZM13.7946 1.73125V9.875H1.20536V1.73125L0.743304 1.39531L1.40123 0.60625L2.11775 1.12656H12.8839L13.6004 0.60625L14.2584 1.39531L13.7946 1.73125ZM12.8839 1.125L7.5 5.03125L2.11607 1.125L1.39955 0.604687L0.741629 1.39375L1.20368 1.72969L6.92243 5.87969C7.0869 5.99894 7.28923 6.06367 7.49749 6.06367C7.70575 6.06367 7.90808 5.99894 8.07255 5.87969L13.7946 1.73125L14.2567 1.39531L13.5988 0.60625L12.8839 1.125Z" fill="white"/>
</svg>
