<svg width="123" height="60" viewBox="0 0 123 60" fill="none" xmlns="http://www.w3.org/2000/svg">
<g clip-path="url(#clip0)">
<path fill-rule="evenodd" clip-rule="evenodd" d="M10.2014 11.0122L10.6608 10.5933C12.1606 7.30986 13.3497 5.40466 12.4038 1.79695V1.68885C12.4038 1.21593 12.8497 0.216041 13.3902 0.216041C14.4104 0.216016 15.3893 0.61945 16.1133 1.33834C16.8372 2.05723 17.2475 3.03323 17.2546 4.05346C16.7221 5.5464 16.0762 6.99642 15.3224 8.39082V8.55296H15.5927C16.8222 8.55296 32.1449 -0.0541992 34.5095 -0.0541992C35.5364 -0.0541992 36.0499 0.418722 36.0499 1.297C36.0499 4.17507 14.0928 11.3635 13.7956 12.2147C12.1606 15.282 10.6878 17.7817 9.45819 20.7543C13.2145 23.0919 24.6322 29.9966 28.4966 31.1721C28.9161 31.2514 29.2979 31.4664 29.5832 31.7841C29.8684 32.1017 30.0412 32.5044 30.075 32.93C30.1088 33.3555 30.0017 33.7804 29.7702 34.1391C29.5387 34.4978 29.1956 34.7705 28.7939 34.9149C25.2808 36.8877 13.755 25.1457 8.52586 22.4298C7.51246 24.9566 4.60738 37.7119 2.63462 37.7119C1.83889 37.4151 1.15648 36.8759 0.683712 36.1704C0.210946 35.4649 -0.0282918 34.6287 -0.000226473 33.7799C-0.000226473 31.0775 3.9588 23.8891 5.40458 20.7543C5.41216 20.7005 5.41216 20.646 5.40458 20.5922C4.13513 19.4782 2.77972 18.4661 1.35098 17.5655C1.20609 17.4679 1.08889 17.3345 1.01077 17.1782C0.932639 17.022 0.896232 16.8482 0.905079 16.6737C0.905079 14.9847 10.1068 11.5256 10.1068 11.0122H10.2014ZM5.99911 18.5654L6.30989 18.7275H6.41799C6.58013 18.7275 6.95847 17.9033 7.553 16.2683L8.39074 14.2821C7.37734 14.1064 3.83719 16.4035 3.83719 16.9845C4.47263 17.6177 5.2075 18.1426 6.01263 18.5384L5.99911 18.5654ZM30.8612 26.0781C30.1934 26.7777 29.8166 27.7052 29.8073 28.6724C29.8073 29.1453 29.9965 29.3615 30.3478 29.3615C30.8708 29.1722 31.3593 28.8983 31.7936 28.5508C31.5098 30.1182 28.2399 35.9554 31.172 35.9554C31.2896 35.9338 31.3979 35.8773 31.4828 35.7932C34.1852 33.861 44.6435 21.1056 44.9948 26.4699C44.9948 26.9969 44.5624 28.4697 44.4679 29.1723C44.2517 30.5235 43.8058 35.1446 46.265 35.1446C49.116 35.1446 53.8857 30.7127 55.3586 27.0374C55.4425 26.8645 55.4886 26.6756 55.4937 26.4834C55.4937 26.2132 55.3721 26.0781 55.1153 26.0781C54.3316 26.0781 48.3593 31.4018 48.0621 31.4018C48.0255 31.4061 47.9885 31.4022 47.9537 31.3901C47.9189 31.3781 47.8874 31.3583 47.8614 31.3323C47.8353 31.3063 47.8156 31.2747 47.8035 31.2399C47.7915 31.2051 47.7875 31.1681 47.7918 31.1316C48.0316 29.1871 48.4155 27.2631 48.9403 25.3754L49.1565 23.7135C49.2202 23.3931 49.1767 23.0608 49.0326 22.7677C48.8885 22.4746 48.6519 22.2372 48.3593 22.092C47.7627 21.7817 47.106 21.604 46.4343 21.5714C45.7626 21.5387 45.0918 21.6518 44.4679 21.9028C41.7655 22.8622 35.8337 29.0372 35.658 29.0372C35.637 29.0417 35.6152 29.041 35.5944 29.0354C35.5736 29.0297 35.5545 29.0192 35.5387 29.0046C35.5228 28.9901 35.5107 28.972 35.5032 28.9518C35.4958 28.9316 35.4933 28.9099 35.4959 28.8886C35.4959 24.2134 48.0215 13.3768 48.0215 5.16144C47.9899 4.63017 47.8274 4.11495 47.5486 3.66161C47.4062 3.38724 47.1877 3.15975 46.9193 3.00638C46.6509 2.85301 46.3439 2.78026 46.0353 2.79684C46.0353 2.79684 32.0773 24.8485 31.753 25.5376C31.6545 25.6888 31.5232 25.816 31.3688 25.9095C31.2144 26.0031 31.0409 26.0607 30.8612 26.0781ZM76.8021 27.0239C77.0904 26.5825 77.3832 26.3618 77.6804 26.3618C77.7885 26.3618 77.9101 26.4564 78.0588 26.6321C78.1724 26.7513 78.2477 26.9019 78.275 27.0644C78.275 30.3884 73.3296 34.442 71.0866 34.442C68.1815 34.442 68.3031 31.1586 68.5733 29.0372C68.5733 28.9291 68.5733 28.8886 68.4652 28.8886C68.3869 28.9051 68.3129 28.9377 68.2478 28.9842C68.1827 29.0307 68.1279 29.0901 68.0869 29.1588C66.1141 31.7801 59.2906 36.6715 57.6826 36.5229C57.1022 36.475 56.5326 36.3383 55.9936 36.1175C47.9675 32.7935 63.5874 20.984 68.1544 20.984C69.2624 20.984 69.8705 21.7542 69.9786 23.2811C69.9786 23.6054 70.1002 23.7675 70.2488 23.7675C70.3974 23.7675 70.6947 23.4432 71.019 22.7946C71.5595 21.7272 74.2754 20.9705 74.2754 23.2946C74.2754 24.2404 70.5461 30.1317 71.8703 31.2667C72.8566 31.01 76.6265 27.4158 76.8697 27.0374L76.8021 27.0239ZM68.2761 26.3618C68.9111 25.7268 69.2759 25.3214 69.2219 25.1863C68.4652 23.3081 57.5745 26.8753 57.5745 32.2666C57.5745 33.1313 57.7502 33.6178 58.088 33.6178C60.5472 33.6178 66.5195 28.213 68.2896 26.4159L68.2761 26.3618ZM82.4231 35.9824C84.9769 37.4822 88.6657 34.4825 89.7602 32.4557C89.9838 31.9543 90.2949 31.4968 90.679 31.1045C93.1112 29.1048 100.57 22.5109 95.5028 25.0241C87.274 29.0777 91.7735 27.9022 90.098 26.6321C87.9496 25.9159 87.0578 27.3752 85.7201 28.6589C85.1661 29.2129 85.1526 30.5505 85.8552 30.6857C86.5578 30.8208 86.9497 30.8748 86.9497 31.2532C86.7815 31.8831 86.4845 32.4713 86.0775 32.9806C85.6705 33.4899 85.1624 33.9093 84.5851 34.2123C81.5178 34.2123 84.4229 26.6456 84.5851 25.7132C85.1661 26.2402 85.5579 26.4969 85.7336 26.4969C88.436 26.4969 102.664 0.567354 96.9891 0.567354C91.5843 0.567354 76.2617 29.6182 81.4097 35.2933C81.6744 35.5511 81.9747 35.7696 82.3015 35.9418L82.4231 35.9824ZM96.5432 4.2156C95.7595 8.10707 89.1792 20.2679 85.4363 23.0919C85.3752 23.1524 85.3013 23.1985 85.2201 23.227C85.7471 17.8222 96.0973 1.60778 96.5838 3.89131L96.5432 4.2156Z" fill="white"/>
<path fill-rule="evenodd" clip-rule="evenodd" d="M114.96 34.3205L114.352 35.8473C114.352 35.9149 114.352 35.9825 114.46 35.9554C116.528 35.1853 121.419 33.6989 122.743 36.7121C122.935 37.2999 123.009 37.9199 122.959 38.5362C122.959 39.1983 122.743 39.5361 122.297 39.5361C121.909 39.479 121.549 39.2991 121.27 39.0227C120.858 38.6933 120.556 38.2453 120.406 37.739C119.798 35.8068 114.19 37.0499 113.555 37.8336C112.434 39.1848 103.232 59.7771 98.6918 59.4529C89.9901 56.5883 107.029 38.9281 108.947 38.2525C109.934 37.9012 114.474 28.0239 114.474 26.2133C114.474 26.1457 114.474 26.1187 114.366 26.1187C114.183 26.1788 114.016 26.2805 113.879 26.4159C111.717 28.2671 101.475 34.28 99.0161 32.4693C97.0569 31.0236 99.5566 26.524 99.0161 26.524C98.4756 26.524 97.8406 28.4833 97.165 28.4833C96.6921 28.1725 95.9219 27.605 95.9219 26.9564C95.9219 26.8213 101.624 20.5923 103.948 20.7409C106.867 20.9301 101.516 28.105 101.516 29.4697C101.516 29.6588 101.61 29.7399 101.84 29.7399C104.043 29.7399 114.609 21.0111 116.703 21.0111C117.202 21.0214 117.681 21.2082 118.055 21.5381C120.217 23.3217 115.852 32.3477 115.068 34.3205H114.96ZM108.285 40.6847C105.421 42.9141 98.827 50.0215 98.4081 56.2775C98.273 58.2908 109.447 40.6847 108.285 40.6847Z" fill="white"/>
</g>
<defs>
<clipPath id="clip0">
<rect width="123" height="59.4664" fill="white"/>
</clipPath>
</defs>
</svg>
