<svg width="15" height="15" viewBox="0 0 15 15" fill="none" xmlns="http://www.w3.org/2000/svg">
<path d="M7.49798 3.65177C5.36846 3.65177 3.64983 5.37044 3.64983 7.5C3.64983 9.62956 5.36846 11.3482 7.49798 11.3482C9.62751 11.3482 11.3461 9.62956 11.3461 7.5C11.3461 5.37044 9.62751 3.65177 7.49798 3.65177ZM7.49798 10.0011C6.12083 10.0011 4.99697 8.87718 4.99697 7.5C4.99697 6.12282 6.12083 4.99894 7.49798 4.99894C8.87514 4.99894 9.999 6.12282 9.999 7.5C9.999 8.87718 8.87514 10.0011 7.49798 10.0011ZM11.5037 2.59731C11.0065 2.59731 10.605 2.99883 10.605 3.49604C10.605 3.99326 11.0065 4.39478 11.5037 4.39478C12.0009 4.39478 12.4025 3.99513 12.4025 3.49604C12.4026 3.37798 12.3795 3.26105 12.3343 3.15194C12.2892 3.04283 12.223 2.9437 12.1396 2.86021C12.0561 2.77673 11.9569 2.71054 11.8478 2.66542C11.7387 2.62031 11.6218 2.59716 11.5037 2.59731ZM14.9992 7.5C14.9992 6.4643 15.0085 5.43798 14.9504 4.40416C14.8922 3.20335 14.6183 2.13763 13.7402 1.25953C12.8603 0.379564 11.7964 0.107505 10.5956 0.049341C9.55996 -0.00882328 8.53366 0.000558085 7.49986 0.000558085C6.46418 0.000558085 5.43788 -0.00882328 4.40408 0.049341C3.20329 0.107505 2.13759 0.38144 1.25951 1.25953C0.379557 2.1395 0.107503 3.20335 0.0493401 4.40416C-0.00882312 5.43986 0.000558074 6.46618 0.000558074 7.5C0.000558074 8.53382 -0.00882312 9.56202 0.0493401 10.5958C0.107503 11.7967 0.381433 12.8624 1.25951 13.7405C2.13946 14.6204 3.20329 14.8925 4.40408 14.9507C5.43976 15.0088 6.46606 14.9994 7.49986 14.9994C8.53554 14.9994 9.56184 15.0088 10.5956 14.9507C11.7964 14.8925 12.8621 14.6186 13.7402 13.7405C14.6202 12.8605 14.8922 11.7967 14.9504 10.5958C15.0104 9.56202 14.9992 8.5357 14.9992 7.5ZM13.3481 11.9242C13.2111 12.2657 13.046 12.5209 12.7815 12.7836C12.5169 13.0481 12.2636 13.2132 11.9221 13.3502C10.9352 13.7423 8.59183 13.6542 7.49798 13.6542C6.40414 13.6542 4.05885 13.7423 3.07195 13.3521C2.73048 13.2151 2.47531 13.05 2.21264 12.7854C1.94809 12.5209 1.78298 12.2676 1.64601 11.9261C1.25576 10.9373 1.34394 8.59386 1.34394 7.5C1.34394 6.40614 1.25576 4.0608 1.64601 3.07388C1.78298 2.7324 1.94809 2.47723 2.21264 2.21455C2.47719 1.95188 2.73048 1.78489 3.07195 1.64792C4.05885 1.25766 6.40414 1.34584 7.49798 1.34584C8.59183 1.34584 10.9371 1.25766 11.924 1.64792C12.2655 1.78489 12.5207 1.95 12.7833 2.21455C13.0479 2.47911 13.213 2.7324 13.35 3.07388C13.7402 4.0608 13.652 6.40614 13.652 7.5C13.652 8.59386 13.7402 10.9373 13.3481 11.9242Z" fill="white"/>
</svg>
